<?xml version="1.0" standalone="no"?>
<!DOCTYPE svg PUBLIC "-//W3C//DTD SVG 20010904//EN"
 "http://www.w3.org/TR/2001/REC-SVG-20010904/DTD/svg10.dtd">
<svg version="1.0" xmlns="http://www.w3.org/2000/svg"
 width="300.000000pt" height="300.000000pt" viewBox="0 0 300.000000 300.000000"
 preserveAspectRatio="xMidYMid meet">
<metadata>
Created by potrace 1.10, written by Peter Selinger 2001-2011
</metadata>
<g transform="translate(0.000000,300.000000) scale(0.100000,-0.100000)"
fill="#000000" stroke="none">
<path d="M0 404 c0 -13 17 -15 118 -13 74 2 125 -2 137 -9 16 -9 3 -11 -67
-12 l-88 0 0 -145 0 -145 118 0 c162 0 163 1 149 173 -6 66 -26 104 -61 113
-39 9 -21 33 22 29 71 -7 337 -7 353 0 10 3 20 2 24 -4 9 -16 45 -13 45 3 0
10 9 12 43 6 23 -5 72 -7 109 -5 50 3 68 0 72 -11 8 -21 34 -17 41 6 3 11 10
20 15 20 5 0 7 -6 4 -13 -3 -8 2 -14 11 -14 9 0 14 6 11 13 -4 10 4 9 36 -2
49 -17 51 -17 42 -2 -5 7 -2 9 9 5 9 -3 33 -11 54 -16 l38 -10 -3 -146 -3
-145 50 0 51 0 0 42 0 42 43 -42 c35 -34 50 -42 80 -42 l37 0 2 58 c1 31 0 78
-1 105 -2 28 1 47 8 47 6 0 8 7 5 15 -6 14 4 19 23 13 10 -4 10 -4 11 -130 l2
-108 45 0 45 0 0 42 0 42 43 -42 c38 -37 48 -42 90 -42 l48 0 -2 147 -1 147
43 13 c54 16 52 16 43 1 -5 -8 0 -9 17 -4 67 19 80 19 73 2 -8 -21 12 -21 25
1 8 15 12 16 34 4 15 -8 33 -10 44 -6 31 13 81 16 88 5 8 -13 62 -13 70 0 9
14 110 7 129 -9 14 -12 19 -11 36 4 16 15 26 16 62 7 24 -6 66 -8 93 -5 67 8
270 6 296 -2 12 -4 25 -3 30 2 6 6 32 8 59 5 42 -4 50 -2 50 12 0 14 -30 16
-300 16 -260 0 -300 -2 -300 -15 0 -8 -4 -15 -10 -15 -5 0 -10 7 -10 15 0 12
-15 15 -71 15 -39 0 -80 -5 -91 -11 -15 -8 -19 -8 -14 0 5 8 -294 11 -1098 11
-991 0 -1106 -2 -1106 -16z m305 -54 c35 -13 50 -55 31 -85 -14 -21 -13 -24 4
-40 25 -23 25 -50 1 -74 -11 -11 -18 -21 -16 -23 2 -1 -45 -2 -105 0 l-108 3
-1 106 c-1 57 1 109 5 114 7 12 156 12 189 -1z m1058 -52 l57 -63 -2 60 -3 60
30 0 30 0 3 -123 3 -123 -33 3 c-18 2 -32 8 -31 14 1 6 -23 35 -53 65 l-54 53
0 -57 c0 -57 0 -57 -30 -57 l-30 0 0 115 0 115 28 0 c21 0 40 -14 85 -62z
m307 -5 l61 -68 -3 65 -3 65 33 3 32 3 0 -125 0 -126 -32 1 -33 1 30 8 30 8
-32 1 c-26 1 -41 12 -79 56 -26 30 -50 55 -53 55 -3 0 -4 -25 -3 -55 l4 -55
-36 0 -36 0 0 108 c0 60 3 112 7 115 21 21 55 3 113 -60z m-1407 -180 c-29 -2
-77 -2 -105 0 -29 2 -6 3 52 3 58 0 81 -1 53 -3z"/>
<path d="M170 285 c0 -12 13 -15 61 -15 81 0 77 24 -4 28 -46 2 -57 0 -57 -13z"/>
<path d="M177 214 c-4 -4 -7 -14 -7 -21 0 -11 15 -13 63 -11 47 2 62 7 62 18
0 11 -14 16 -55 18 -31 2 -59 0 -63 -4z"/>
<path d="M2262 378 c-15 -15 -16 -64 -1 -74 16 -10 31 10 32 46 2 35 -11 48
-31 28z m21 -25 c-7 -2 -9 -11 -6 -19 3 -8 0 -14 -6 -14 -12 0 -15 42 -4 53 4
4 11 2 17 -4 8 -8 8 -13 -1 -16z"/>
<path d="M772 368 c-17 -17 -15 -43 3 -58 21 -18 37 0 33 36 -3 31 -18 40 -36
22z m26 -20 c-4 -27 -28 -36 -28 -10 0 20 8 32 22 32 5 0 8 -10 6 -22z"/>
<path d="M1848 373 c-21 -5 -30 -62 -24 -148 2 -33 4 -79 5 -102 l1 -43 44 0
43 0 7 53 c3 28 6 89 6 134 0 73 -2 83 -22 97 -23 16 -30 17 -60 9z m62 -128
l0 -115 -35 0 -35 0 0 115 0 115 35 0 35 0 0 -115z"/>
<path d="M399 333 c-2 -56 -2 -162 -1 -210 l2 -43 44 0 c40 0 44 2 50 30 4 23
11 30 29 30 13 0 36 -13 52 -30 25 -27 35 -30 87 -30 50 0 58 3 58 19 0 10 -7
24 -15 31 -20 17 -19 32 5 63 13 16 20 40 20 67 0 34 -6 48 -34 76 l-34 34
-131 0 -131 0 -1 -37z m285 -2 c36 -33 35 -82 0 -110 -15 -12 -33 -21 -41 -21
-9 0 -1 -16 23 -45 l36 -45 -40 0 c-35 0 -44 5 -71 39 -25 31 -39 40 -71 43
-39 3 -40 3 -40 -29 0 -31 -2 -33 -35 -33 l-35 0 0 116 0 116 124 -3 c115 -4
126 -6 150 -28z"/>
<path d="M480 268 l0 -28 73 0 c80 0 101 8 95 36 -3 16 -14 18 -86 19 l-82 1
0 -28z"/>
<path d="M846 308 c-96 -152 -116 -189 -116 -208 0 -18 7 -20 55 -20 40 0 57
4 61 15 9 22 139 22 148 0 4 -11 20 -15 57 -15 l52 0 -6 34 c-3 19 -36 83 -74
143 -64 101 -71 108 -103 111 -33 3 -37 -1 -74 -60z m157 -50 c99 -159 95
-148 45 -147 l-43 2 35 7 35 7 -37 2 c-20 0 -40 6 -43 11 -3 6 -39 10 -80 10
-65 0 -74 -2 -80 -20 -5 -16 -15 -20 -50 -20 l-45 0 44 68 c23 37 59 93 79
125 24 37 43 57 56 57 14 0 38 -30 84 -102z"/>
<path d="M892 240 l-23 -40 52 0 c28 0 49 3 47 8 -11 22 -44 72 -48 72 -3 0
-15 -18 -28 -40z"/>
<path d="M1117 364 c-4 -4 -7 -70 -7 -146 l0 -138 50 0 51 0 -3 143 -3 142
-40 3 c-23 2 -44 0 -48 -4z m73 -129 l0 -125 -37 1 -38 2 35 7 c31 7 32 7 8 9
l-28 1 0 115 0 115 30 0 30 0 0 -125z"/>
<path d="M2019 262 c-85 -137 -92 -151 -85 -168 8 -20 105 -19 112 1 9 22 149
22 158 0 4 -11 21 -15 61 -15 79 0 76 13 -43 192 -62 94 -67 98 -101 98 -35 0
-38 -3 -102 -108z m204 -20 c42 -65 77 -121 77 -125 0 -4 -19 -6 -42 -6 l-43
2 35 7 35 7 -37 2 c-21 0 -38 6 -38 11 0 6 -35 10 -84 10 -76 0 -85 -2 -91
-20 -5 -16 -15 -20 -46 -20 -21 0 -39 3 -39 6 0 6 125 209 143 232 5 6 19 12
31 12 16 0 40 -29 99 -118z"/>
<path d="M2096 240 l-26 -40 55 0 56 0 -28 38 c-15 20 -28 38 -29 40 0 1 -13
-16 -28 -38z"/>
<path d="M2383 351 c-18 -11 -39 -34 -48 -50 -20 -39 -19 -114 1 -157 26 -54
56 -64 189 -64 l116 0 -3 58 -3 57 -85 3 c-116 3 -131 7 -126 35 3 21 9 22
107 27 l104 5 0 50 0 50 -110 3 c-95 2 -114 0 -142 -17z m237 -25 l0 -34 -37
10 c-21 5 -64 8 -96 6 -66 -5 -87 -22 -87 -69 0 -45 31 -59 132 -59 87 0 88 0
88 -25 l0 -25 -100 0 c-141 0 -180 23 -180 105 0 50 25 94 63 110 19 9 69 14
125 15 l92 0 0 -34z m-47 -213 c-29 -2 -77 -2 -105 0 -29 2 -6 3 52 3 58 0 81
-1 53 -3z"/>
<path d="M2689 341 c-33 -34 -39 -83 -14 -130 13 -26 13 -30 0 -41 -17 -14
-12 -45 13 -72 12 -15 32 -18 113 -18 95 0 98 1 119 27 18 23 21 37 17 82 -2
30 -9 57 -16 59 -7 2 -8 8 -3 15 21 28 21 61 0 84 -19 21 -31 23 -111 23 -85
0 -90 -1 -118 -29z m212 0 c20 -16 21 -21 10 -35 -9 -10 -19 -13 -30 -7 -18 9
-128 7 -138 -3 -14 -13 14 -24 76 -28 72 -5 101 -27 101 -78 0 -46 -25 -58
-127 -62 -50 -2 -90 -1 -87 1 2 2 -1 10 -8 18 -22 26 7 38 88 34 69 -3 76 -1
72 16 -3 15 -16 19 -73 25 -89 9 -94 10 -93 17 1 3 -2 14 -7 25 -12 26 6 68
35 83 40 20 153 17 181 -6z m-58 -228 c-24 -2 -62 -2 -85 0 -24 2 -5 4 42 4
47 0 66 -2 43 -4z"/>
<path d="M1046 341 c-7 -11 18 -33 27 -24 4 3 7 12 7 20 0 15 -26 18 -34 4z"/>
</g>
</svg>
